<?xml version="1.0" encoding="UTF-8"?>
<svg version="1.1" xmlns="http://www.w3.org/2000/svg" width="131" height="92">
<path d="M0 0 C43.23 0 86.46 0 131 0 C131 30.36 131 60.72 131 92 C87.77 92 44.54 92 0 92 C0 61.64 0 31.28 0 0 Z " fill="#FDFDFE" transform="translate(0,0)"/>
<path d="M0 0 C0.66 0 1.32 0 2 0 C11.61741617 18.19331492 20.84293173 36.57218709 30 55 C34.64586892 54.51515724 34.64586892 54.51515724 39 53 C39.65213292 50.97536745 39.65213292 50.97536745 40 49 C40.66 49 41.32 49 42 49 C44.46943529 52.70415293 44.46913089 54.62144505 44 59 C41.18851103 61.90843686 38.31948405 62.91836286 34.28515625 63.16796875 C16.53547673 63.27554257 -0.23106031 59.00710816 -15.8515625 50.6484375 C-19.03761087 48.92469389 -19.03761087 48.92469389 -22.640625 47.46484375 C-29.32141205 44.55170986 -34.92614173 40.04906227 -39 34 C-39.8125 30.125 -39.8125 30.125 -40 27 C-37.64031256 24.90250005 -36.45383006 24.03094296 -33.25 23.8125 C-32.13625 23.9053125 -32.13625 23.9053125 -31 24 C-31.309375 25.010625 -31.61875 26.02125 -31.9375 27.0625 C-32.37756367 30.84652786 -32.37756367 30.84652786 -30.68359375 32.91796875 C-27.45653365 36.18684821 -24.10350634 38.88607249 -20 41 C-19.61714844 39.746427 -19.61714844 39.746427 -19.2265625 38.4675293 C-17.88072067 34.66279373 -16.19164572 31.11366801 -14.375 27.51953125 C-14.02743652 26.82486252 -13.67987305 26.13019379 -13.32177734 25.41447449 C-12.59076619 23.95545772 -11.85782351 22.49740726 -11.12304688 21.0402832 C-9.99926985 18.81105161 -8.88198035 16.57865907 -7.765625 14.34570312 C-7.05246135 12.92428944 -6.33893232 11.50305901 -5.625 10.08203125 C-5.29161621 9.4163765 -4.95823242 8.75072174 -4.61474609 8.06489563 C-3.19648146 5.25720787 -1.74767059 2.62150589 0 0 Z " fill="#2263A0" transform="translate(65,8)"/>
<path d="M0 0 C-0.99 0.5259375 -0.99 0.5259375 -2 1.0625 C-4.33175248 2.9295894 -4.33175248 2.9295894 -4.5 6.3125 C-3.54793256 13.33399737 1.01242899 17.47034132 6.19140625 21.91796875 C25.58024495 36.2910578 51.03536354 43.42015022 75 41 C77.4177275 40.47469079 79.65155935 39.79554223 82 39 C82.66 36.03 83.32 33.06 84 30 C84.66 30 85.32 30 86 30 C88.05444305 32.68657938 88.9477893 34.64198374 89.4375 38 C88.87881777 41.83096387 87.80037463 43.34701351 85 46 C81.33965813 47.60139957 79.02927167 48 75 48 C75.99 50.64 76.98 53.28 78 56 C64.04093774 56.68839211 64.04093774 56.68839211 60.25 54.25 C58.20517699 52.20517699 56.96725168 50.7083047 56 48 C55.05253906 48.05929688 54.10507813 48.11859375 53.12890625 48.1796875 C48.13207747 48.17717337 43.65864436 46.63212106 38.9375 45.125 C38.06544922 44.85558594 37.19339844 44.58617187 36.29492188 44.30859375 C31.84470381 42.92737543 27.41406925 41.4931006 23 40 C22.95875 40.825 22.9175 41.65 22.875 42.5 C21.70911375 47.163545 19.42886993 50.63181804 16 54 C12.03441641 56.13583747 8.64277912 56.21500564 4.1875 56.125 C3.02605469 56.10695312 1.86460938 56.08890625 0.66796875 56.0703125 C-0.65267578 56.03550781 -0.65267578 56.03550781 -2 56 C-1.73783691 55.42032471 -1.47567383 54.84064941 -1.20556641 54.2434082 C-0.01093706 51.60027096 1.18204587 48.95639373 2.375 46.3125 C2.7875 45.40048828 3.2 44.48847656 3.625 43.54882812 C4.02460937 42.66259766 4.42421875 41.77636719 4.8359375 40.86328125 C5.20251465 40.05157471 5.5690918 39.23986816 5.94677734 38.40356445 C7.01946403 35.95558103 8.02080717 33.48668534 9 31 C8.01 30.690625 8.01 30.690625 7 30.375 C-1.3069101 26.5676662 -9.35219013 19.51155637 -13 11 C-13.4375 8.0625 -13.4375 8.0625 -13 5 C-10.84670921 2.30838651 -9.12980326 0.47931047 -5.9375 -0.875 C-3.75218318 -1.01598818 -2.07709068 -0.66763629 0 0 Z " fill="#2566A2" transform="translate(28,31)"/>
<path d="M0 0 C-0.309375 1.010625 -0.61875 2.02125 -0.9375 3.0625 C-1.02155332 7.40622975 -1.02155332 7.40622975 1.5625 10.4375 C7.71730273 15.93196964 16.01127303 21.00281826 24 23 C26.31 18.05 28.62 13.1 31 8 C31.66 8 32.32 8 33 8 C33.28198242 8.6612085 33.56396484 9.32241699 33.85449219 10.00366211 C35.13764284 12.98848491 36.44343285 15.96285765 37.75 18.9375 C38.41515625 20.49887695 38.41515625 20.49887695 39.09375 22.09179688 C39.53203125 23.08115234 39.9703125 24.07050781 40.421875 25.08984375 C40.81987305 26.00628662 41.21787109 26.92272949 41.62792969 27.86694336 C42.79516299 30.12248016 42.79516299 30.12248016 44.88574219 30.79638672 C48.76252446 31.16973965 52.60727174 31.18456431 56.5 31.1875 C57.35464844 31.19974609 58.20929688 31.21199219 59.08984375 31.22460938 C59.91613281 31.22654297 60.74242188 31.22847656 61.59375 31.23046875 C62.71813477 31.23663208 62.71813477 31.23663208 63.86523438 31.24291992 C66.32098541 30.96347433 67.91499379 30.31634695 70 29 C70.80528889 26.94999129 70.80528889 26.94999129 71 25 C71.66 25 72.32 25 73 25 C75.46943529 28.70415293 75.46913089 30.62144505 75 35 C72.18851103 37.90843686 69.31948405 38.91836286 65.28515625 39.16796875 C47.53547673 39.27554257 30.76893969 35.00710816 15.1484375 26.6484375 C11.96238913 24.92469389 11.96238913 24.92469389 8.359375 23.46484375 C1.67858795 20.55170986 -3.92614173 16.04906227 -8 10 C-8.8125 6.125 -8.8125 6.125 -9 3 C-5.92807025 0.26939578 -4.09590633 -0.34132553 0 0 Z " fill="#2666A2" transform="translate(34,32)"/>
<path d="M0 0 C5.61 0 11.22 0 17 0 C16.01 0.495 16.01 0.495 15 1 C15 1.66 15 2.32 15 3 C13.75283203 3.07347656 13.75283203 3.07347656 12.48046875 3.1484375 C11.39378906 3.22320312 10.30710937 3.29796875 9.1875 3.375 C8.10855469 3.44460937 7.02960937 3.51421875 5.91796875 3.5859375 C2.81373814 3.81195733 2.81373814 3.81195733 0 6 C0.12345869 11.92601732 1.92309222 14.86309034 5.97265625 19.14453125 C11.01462756 23.7590522 16.70654016 26.43994854 23 29 C23.71929687 29.35707031 24.43859375 29.71414062 25.1796875 30.08203125 C31.32086049 33.09522361 37.59553442 35.26177863 44.125 37.25 C44.95990967 37.50821533 45.79481934 37.76643066 46.6550293 38.0324707 C56.12249365 40.83381029 70.63134735 44.11233261 79.8125 39.5 C80.8953125 38.7575 80.8953125 38.7575 82 38 C82.11320856 32.91696314 82.11320856 32.91696314 81 28 C80.34 28 79.68 28 79 28 C78.67 29.32 78.34 30.64 78 32 C77.7525 31.113125 77.505 30.22625 77.25 29.3125 C75.96065232 25.89572865 74.40019871 23.7202252 72 21 C77.9623344 22.39121136 82.25227345 24.13250096 86.03125 29.09765625 C87 31 87 31 87.125 34.6875 C85.65559754 39.01407392 83.97809291 40.94628512 79.96875 43.08203125 C58.91009747 49.59358828 35.00020189 39.42584252 16.44921875 30.2421875 C8.83226683 26.08044757 0.34939891 20.37349727 -3 12 C-3.375 8.4375 -3.375 8.4375 -3 5 C-1 3.0625 -1 3.0625 1 2 C0.67 1.34 0.34 0.68 0 0 Z " fill="#E8EEF5" transform="translate(26,29)"/>
<path d="M0 0 C5.61 0 11.22 0 17 0 C17 0.66 17 1.32 17 2 C19.31 2 21.62 2 24 2 C25 5 25 5 24.37915039 6.80932617 C24.03875732 7.46392822 23.69836426 8.11853027 23.34765625 8.79296875 C22.98349609 9.50517578 22.61933594 10.21738281 22.24414062 10.95117188 C21.85419922 11.68916016 21.46425781 12.42714844 21.0625 13.1875 C20.48338867 14.31188477 20.48338867 14.31188477 19.89257812 15.45898438 C18.93728243 17.31060689 17.96978423 19.15592452 17 21 C13.11300223 19.67256644 10.61005232 18.0660214 7.6875 15.1875 C6.64142578 14.18783203 6.64142578 14.18783203 5.57421875 13.16796875 C4 11 4 11 3.58203125 8.36328125 C3.71996094 7.58339844 3.85789062 6.80351563 4 6 C7.4352048 3.70986347 8.985331 3.82157027 13 4 C13 3.34 13 2.68 13 2 C8.71 1.67 4.42 1.34 0 1 C0 0.67 0 0.34 0 0 Z " fill="#F6F9FB" transform="translate(28,28)"/>
<path d="M0 0 C0.66 0 1.32 0 2 0 C3.34242421 2.93342898 4.67234067 5.87236252 6 8.8125 C6.57234375 10.06256836 6.57234375 10.06256836 7.15625 11.33789062 C7.69765625 12.54155273 7.69765625 12.54155273 8.25 13.76953125 C8.58515625 14.50792236 8.9203125 15.24631348 9.265625 16.00708008 C10 18 10 18 10 21 C4.53135543 19.98408579 -0.76390013 18.92908943 -6 17 C-5.49487476 10.77012202 -2.67395877 5.54525767 0 0 Z " fill="#EAF0F6" transform="translate(65,40)"/>
<path d="M0 0 C5.61 0 11.22 0 17 0 C16.01 0.495 16.01 0.495 15 1 C15 1.66 15 2.32 15 3 C13.75283203 3.07347656 13.75283203 3.07347656 12.48046875 3.1484375 C11.39378906 3.22320312 10.30710937 3.29796875 9.1875 3.375 C8.10855469 3.44460937 7.02960937 3.51421875 5.91796875 3.5859375 C2.81373814 3.81195733 2.81373814 3.81195733 0 6 C0.12345869 11.92601732 1.92309222 14.86309034 5.97265625 19.14453125 C10.98924117 23.73581803 16.73047114 26.51584706 23 29 C23.969375 29.391875 24.93875 29.78375 25.9375 30.1875 C26.618125 30.455625 27.29875 30.72375 28 31 C26.375 32.125 26.375 32.125 24 33 C13.95809683 30.32215915 3.17021302 23.05518006 -2.19140625 13.984375 C-3.46262668 10.86466495 -3.36186247 8.31707267 -3 5 C-1 3.0625 -1 3.0625 1 2 C0.67 1.34 0.34 0.68 0 0 Z " fill="#D4E1EC" transform="translate(26,29)"/>
<path d="M0 0 C5.96542064 1.39193148 10.24431527 3.13730418 14.03515625 8.09375 C15.67805469 11.33963843 15.09545465 13.64919754 14 17 C12.4375 18.9375 12.4375 18.9375 11 20 C10.34 19.34 9.68 18.68 9 18 C9.33 17.67 9.66 17.34 10 17 C10.13568319 13.33655389 10.16461426 10.49384279 9 7 C8.34 7 7.68 7 7 7 C6.67 8.32 6.34 9.64 6 11 C5.7525 10.113125 5.505 9.22625 5.25 8.3125 C3.96065232 4.89572865 2.40019871 2.7202252 0 0 Z " fill="#B5CBDF" transform="translate(98,50)"/>
<path d="M0 0 C6.55925943 0.38979206 11.94526627 1.42113193 18 4 C18 4.33 18 4.66 18 5 C15.9377952 5.054348 13.87517184 5.09294961 11.8125 5.125 C10.66394531 5.14820312 9.51539062 5.17140625 8.33203125 5.1953125 C5.08259628 5.00484152 2.91339479 4.39360127 0 3 C0 2.01 0 1.02 0 0 Z " fill="#1E477E" transform="translate(76,59)"/>
<path d="M0 0 C-5.14755093 3.13293435 -9.05250622 3.37993835 -14.875 3.1875 C-15.65875 3.17396484 -16.4425 3.16042969 -17.25 3.14648438 C-19.16696782 3.11141789 -21.08357751 3.05762072 -23 3 C-23.33 2.34 -23.66 1.68 -24 1 C-22.80761719 0.93941406 -21.61523438 0.87882812 -20.38671875 0.81640625 C-18.82030075 0.73198851 -17.25389512 0.64734113 -15.6875 0.5625 C-14.90181641 0.52318359 -14.11613281 0.48386719 -13.30664062 0.44335938 C-12.54931641 0.40146484 -11.79199219 0.35957031 -11.01171875 0.31640625 C-10.31522217 0.27974854 -9.61872559 0.24309082 -8.90112305 0.20532227 C-1.80712804 -0.56083284 -1.80712804 -0.56083284 0 0 Z " fill="#EEF3F7" transform="translate(109,70)"/>
<path d="M0 0 C6.50060481 -0.48754536 11.65467807 1.43645204 17 5 C16.01 5 15.02 5 14 5 C13.67 5.66 13.34 6.32 13 7 C8.71 5.35 4.42 3.7 0 2 C0 1.34 0 0.68 0 0 Z " fill="#D3E0EC" transform="translate(50,61)"/>
<path d="M0 0 C5.61 0 11.22 0 17 0 C16.01 0.495 16.01 0.495 15 1 C15 1.66 15 2.32 15 3 C8.94474232 4.38766322 5.67989374 3.49118146 0 1 C0 0.67 0 0.34 0 0 Z " fill="#9EBBD5" transform="translate(26,29)"/>
<path d="M0 0 C4.03520597 1.58962659 8.01811282 3.28232318 12 5 C11.67 5.99 11.34 6.98 11 8 C6.1725201 6.58707905 2.2837641 4.57025846 -2 2 C-1.34 1.34 -0.68 0.68 0 0 Z " fill="#1E467D" transform="translate(47,48)"/>
<path d="M0 0 C5.61 0 11.22 0 17 0 C17 0.66 17 1.32 17 2 C18.65 2 20.3 2 22 2 C20 4 20 4 16.375 4.125 C15.26125 4.08375 14.1475 4.0425 13 4 C13 3.34 13 2.68 13 2 C8.71 1.67 4.42 1.34 0 1 C0 0.67 0 0.34 0 0 Z " fill="#DBE5EF" transform="translate(28,28)"/>
<path d="M0 0 C5 2 5 2 10 4 C8.375 5.125 8.375 5.125 6 6 C2.53891316 5.16933916 0.52986895 4.52986895 -2 2 C-1.34 1.34 -0.68 0.68 0 0 Z " fill="#B8CDE0" transform="translate(44,56)"/>
<path d="M0 0 C-1.17578125 1.51953125 -1.17578125 1.51953125 -3 3 C-5.48046875 3.07421875 -5.48046875 3.07421875 -8.1875 2.6875 C-9.53908203 2.50767578 -9.53908203 2.50767578 -10.91796875 2.32421875 C-11.94857422 2.16373047 -11.94857422 2.16373047 -13 2 C-13 1.67 -13 1.34 -13 1 C-8.61414671 0.29826347 -4.44209357 -0.10834375 0 0 Z " fill="#C7D7E7" transform="translate(89,70)"/>
<path d="M0 0 C0.99 0.33 1.98 0.66 3 1 C2.0409375 1.5878125 2.0409375 1.5878125 1.0625 2.1875 C-1.43778819 4.38472296 -1.64950425 5.75791433 -2 9 C-3.125 7.25 -3.125 7.25 -4 5 C-3.07451225 2.30066074 -2.57626463 1.28813232 0 0 Z " fill="#BDD0E2" transform="translate(27,31)"/>
</svg>
